# xmcd
#
# Track frame offsets: 
#        150
#        19635
#        38437
#        53599
#        68624
#        84552
#        106469
#        120349
#        137220
#        153012
#        173058
#        181288
#        198621
#        214938
#        225921
#        241162
#        272622
#        295368
#        306663
#        323803
#        337597
#
# Disc length: 4803 seconds
#
# Revision: 3
# Processed by: cddbd v1.5.2PL0 Copyright (c) Steve Scherf et al.
# Submitted via: ExactAudioCopy v1.3
#
DISCID=1512c115
DTITLE=Various Artist - Akella Presents - Country Blues - vol.31  CD2
DTITLE=New!
DYEAR=2013
DGENRE=Blues
TTITLE0=HANS THEESSINK - Crazy Moon
TTITLE1=RUDY ROTTA - My Babe
TTITLE2=JOHNNY NICHOLAS - Hell Bent
TTITLE3=VINCE GILL - Sweet Thing
TTITLE4=ALBERT LEE and HOGAN'S HEROES - Jitterbug Boogie
TTITLE5=COLIN LINDEN - From The Water
TTITLE6=GEORGE THOROGOOD - Hello Josephine
TTITLE7=BIG HOUSE - Losing My Angels
TTITLE8=MARIA MULDAUR - On A Night Like This
TTITLE9=BRIAN KRAMER and THE COUCH LIZARDS - Let It Go (Dala Delta)
TTITLE10=JOHN FOGERTY - It Ain't Right
TTITLE11=ALAN JACKSON - That's Where I Belong
TTITLE12=DAVE WALKER - The Midnight Special
TTITLE13=HANK WILLIAMS Jr. - Lyin' Jukebox
TTITLE14=GORDIE TENTREES - Daylight
TTITLE15=TONY JOE WHITE - I Believe I've Lost My Way
TTITLE16=ARLEN ROTH - August Nights
TTITLE17=THREE HANKS - I'll Never Get Out of This
TTITLE18=BUDDAHEADS - Too Little, Too Late
TTITLE19=NORAH JONES - Creepin In
TTITLE20=MILLER ANDERSON - House Of A Rising Sun
EXTD=
EXTT0=
EXTT1=
EXTT2=
EXTT3=
EXTT4=
EXTT5=
EXTT6=
EXTT7=
EXTT8=
EXTT9=
EXTT10=
EXTT11=
EXTT12=
EXTT13=
EXTT14=
EXTT15=
EXTT16=
EXTT17=
EXTT18=
EXTT19=
EXTT20=
PLAYORDER=
